<?xml version="1.0" standalone="no"?>
<!DOCTYPE svg PUBLIC "-//W3C//DTD SVG 20010904//EN"
 "http://www.w3.org/TR/2001/REC-SVG-20010904/DTD/svg10.dtd">
<svg version="1.0" xmlns="http://www.w3.org/2000/svg"
 width="920.000000pt" height="920.000000pt" viewBox="0 0 920.000000 920.000000"
 preserveAspectRatio="xMidYMid meet">

<g transform="translate(0.000000,920.000000) scale(0.100000,-0.100000)"
fill="#000000" stroke="none">
<path d="M810 7580 c-76 -26 -143 -96 -166 -175 -40 -141 22 -277 156 -339 43
-20 64 -21 425 -24 l380 -3 72 -192 c130 -347 544 -1445 683 -1812 21 -55 97
-257 170 -450 73 -192 150 -397 172 -455 22 -58 59 -157 83 -220 23 -63 97
-259 164 -436 66 -176 121 -325 121 -331 0 -6 -28 -29 -62 -51 -82 -54 -185
-160 -240 -247 -258 -409 -107 -945 329 -1164 113 -56 202 -76 348 -75 111 1
143 5 220 28 133 40 225 95 331 201 127 126 193 248 228 417 25 121 16 311
-19 401 -7 16 36 17 809 17 501 0 816 -4 816 -9 0 -6 -7 -40 -16 -78 -22 -95
-19 -269 5 -366 75 -291 300 -519 586 -593 101 -26 293 -24 399 4 255 70 468
276 554 538 26 81 35 150 34 269 -4 359 -262 681 -615 765 -80 19 -124 20
-1614 20 l-1531 0 -26 68 c-14 37 -48 123 -75 192 -26 69 -46 128 -44 133 2 4
804 7 1781 7 1458 1 1784 3 1815 14 94 34 143 101 193 265 18 58 89 291 158
516 70 226 149 482 176 570 27 88 79 257 116 375 36 118 89 289 116 380 28 91
66 215 85 275 90 292 94 318 73 397 -18 62 -71 128 -130 162 l-55 31 -2731 3
-2731 2 -43 113 c-24 61 -53 139 -66 172 -111 300 -200 528 -222 569 -15 27
-45 62 -66 78 -78 56 -95 58 -615 58 -440 -1 -480 -2 -531 -20z m3280 -1539
c0 -10 7 -104 15 -207 35 -455 45 -590 45 -607 0 -16 -35 -17 -636 -15 l-636
3 -58 155 c-32 85 -103 273 -158 417 -54 145 -97 265 -94 268 3 3 347 5 764 5
737 0 758 -1 758 -19z m1577 -58 c-13 -155 -46 -580 -53 -675 l-6 -98 -589 0
-588 0 -5 33 c-3 17 -8 68 -11 112 -3 44 -12 163 -20 265 -7 102 -17 235 -21
295 -3 61 -8 113 -11 118 -14 25 38 27 659 27 l651 0 -6 -77z m1693 65 c0 -7
-23 -85 -50 -173 -27 -88 -84 -274 -127 -412 l-77 -253 -614 0 -613 0 6 68 c3
37 12 153 20 257 8 105 17 210 19 235 3 25 8 92 12 150 6 89 9 124 13 138 1 1
318 2 706 2 557 0 705 -3 705 -12z m-3178 -1213 c23 -294 48 -635 48 -649 0
-14 -45 -16 -479 -16 l-479 0 -10 28 c-6 15 -50 131 -98 257 -47 127 -106 282
-130 346 -24 64 -44 119 -44 123 0 3 267 5 593 4 l592 -3 7 -90z m1395 13 c-3
-46 -15 -217 -28 -380 l-23 -298 -508 0 -507 0 -5 43 c-3 23 -15 166 -26 317
-11 151 -23 303 -26 338 l-6 62 568 0 567 0 -6 -82z m1438 65 c-3 -10 -30 -97
-59 -193 -30 -96 -80 -259 -112 -362 l-58 -188 -493 0 -494 0 6 68 c7 85 55
678 55 686 0 3 261 6 581 6 549 0 581 -1 574 -17z m-3457 -2277 c112 -57 161
-191 117 -317 -19 -54 -76 -115 -130 -140 -48 -22 -151 -25 -199 -5 -88 37
-156 138 -156 232 0 199 192 319 368 230z m3113 19 c128 -44 204 -184 169
-311 -7 -25 -30 -68 -51 -94 -49 -62 -107 -90 -187 -90 -104 0 -178 43 -225
128 -58 107 -43 217 42 302 73 73 161 96 252 65z"/>
</g>
</svg>
