<?xml version="1.0" standalone="no"?>
<!DOCTYPE svg PUBLIC "-//W3C//DTD SVG 20010904//EN"
 "http://www.w3.org/TR/2001/REC-SVG-20010904/DTD/svg10.dtd">
<svg version="1.0" xmlns="http://www.w3.org/2000/svg"
 width="920.000000pt" height="920.000000pt" viewBox="0 0 920.000000 920.000000"
 preserveAspectRatio="xMidYMid meet">

<g transform="translate(0.000000,920.000000) scale(0.100000,-0.100000)"
fill="#000000" stroke="none">
<path d="M3345 9133 c-553 -19 -1143 -196 -1626 -488 -402 -244 -780 -599
-1051 -990 -506 -728 -703 -1633 -552 -2535 50 -301 176 -675 321 -959 170
-332 364 -594 642 -871 327 -325 657 -547 1086 -731 600 -256 1322 -329 1975
-199 482 96 984 319 1368 608 45 34 86 62 90 62 4 0 74 -67 155 -148 l147
-148 -26 -64 c-55 -136 -55 -324 0 -460 54 -135 63 -146 961 -1046 833 -836
873 -875 944 -909 201 -99 388 -99 589 1 90 44 102 54 312 263 210 210 219
221 264 312 100 202 100 391 1 590 -35 69 -73 110 -593 632 -307 307 -706 704
-888 882 -317 309 -334 324 -415 363 -108 52 -181 66 -316 60 -90 -4 -121 -10
-188 -36 l-80 -32 -150 150 -149 149 32 43 c390 523 618 1095 688 1723 19 175
21 491 5 675 -53 575 -262 1153 -589 1625 -157 227 -429 524 -636 695 -653
538 -1466 813 -2321 783z m560 -662 c596 -96 1120 -360 1539 -776 429 -426
700 -960 798 -1569 20 -123 23 -177 22 -416 0 -235 -4 -295 -23 -410 -100
-609 -365 -1133 -786 -1555 -357 -357 -810 -613 -1295 -733 -250 -62 -366 -75
-670 -76 -239 -1 -293 2 -416 22 -609 98 -1143 369 -1569 798 -424 426 -685
954 -782 1574 -25 164 -25 607 0 770 134 867 620 1591 1360 2024 329 193 736
326 1122 365 153 16 550 5 700 -18z"/>
<path d="M1647 6463 c-77 -151 -137 -321 -173 -491 -47 -219 -44 -552 6 -782
49 -228 175 -515 307 -699 77 -107 250 -292 351 -374 223 -182 521 -325 802
-385 465 -100 943 -23 1361 218 163 94 175 85 -118 86 -219 0 -277 3 -387 22
-487 84 -867 262 -1234 577 -175 150 -347 353 -474 557 -28 46 -84 151 -124
233 -162 338 -232 647 -247 1100 l-2 70 -68 -132z"/>
</g>
</svg>
