<?xml version="1.0" standalone="no"?>
<!DOCTYPE svg PUBLIC "-//W3C//DTD SVG 20010904//EN"
 "http://www.w3.org/TR/2001/REC-SVG-20010904/DTD/svg10.dtd">
<svg version="1.0" xmlns="http://www.w3.org/2000/svg"
 width="225.000000pt" height="225.000000pt" viewBox="0 0 225.000000 225.000000"
 preserveAspectRatio="xMidYMid meet">

<g transform="translate(0.000000,225.000000) scale(0.100000,-0.100000)"
fill="#000000" stroke="none">
<path d="M900 1733 c78 -3 109 -8 122 -20 10 -8 15 -20 12 -24 -3 -5 237 -9
545 -9 333 0 560 -4 575 -10 16 -6 26 -17 26 -29 0 -21 -188 -643 -216 -716
-9 -22 -26 -54 -39 -71 -23 -30 -23 -30 -3 -43 19 -12 19 -13 2 -34 -10 -12
-1 -6 19 13 21 19 47 49 57 66 16 25 126 364 227 702 28 93 23 125 -25 162
-24 20 -42 20 -716 18 -380 -1 -644 -4 -586 -5z"/>
<path d="M1070 1593 c70 -4 110 -20 110 -44 0 -5 -39 -10 -87 -12 -77 -2 -73
-3 35 -5 l122 -2 0 -79 c0 -74 -1 -80 -22 -84 -20 -5 -20 -5 2 -4 23 2 25 7
30 56 5 51 6 52 22 35 9 -11 18 -32 21 -49 2 -16 5 5 6 48 l1 77 135 0 135 0
0 -80 0 -80 -132 -1 c-73 -1 -119 -4 -103 -6 17 -3 38 -12 49 -21 17 -16 16
-17 -30 -23 -31 -4 0 -6 84 -7 l132 -2 0 -80 c0 -76 2 -83 27 -104 26 -22 27
-28 27 -107 -1 -83 -1 -83 3 -11 l4 72 109 0 c61 0 110 -3 110 -6 0 -3 -7 -29
-15 -57 -17 -57 -30 -77 -60 -95 -18 -11 -18 -12 6 -6 34 7 59 -19 32 -35 -10
-6 -14 -11 -9 -11 6 0 23 12 38 27 22 21 39 61 73 168 160 513 158 504 145
520 -11 13 -82 15 -544 13 -292 -1 -497 -4 -456 -5z m924 -90 c-4 -16 -15 -50
-24 -78 l-17 -50 -156 -3 -157 -3 0 81 0 80 180 0 180 0 -6 -27z m-69 -225
c-4 -17 -15 -54 -25 -82 l-17 -51 -121 -3 -122 -3 0 86 0 85 146 0 146 0 -7
-32z"/>
<path d="M1488 1133 c18 -2 45 -2 60 0 15 2 0 4 -33 4 -33 0 -45 -2 -27 -4z"/>
<path d="M1478 1083 c17 -2 47 -2 65 0 17 2 3 4 -33 4 -36 0 -50 -2 -32 -4z"/>
<path d="M1582 1040 c0 -19 2 -27 5 -17 2 9 2 25 0 35 -3 9 -5 1 -5 -18z"/>
<path d="M1703 853 c15 -2 37 -2 50 0 12 2 0 4 -28 4 -27 0 -38 -2 -22 -4z"/>
</g>
</svg>
